<svg width="931" height="188" viewBox="0 0 931 188" fill="none" xmlns="http://www.w3.org/2000/svg">
<g clip-path="url(#clip0_65_29)">
<path d="M0 151.3H71.357V167.888H0V151.3Z" fill="#4285F4"/>
<path d="M78.008 66.93H95.597V76.654H96.741C97.599 74.938 98.743 73.365 100.173 71.935C101.603 70.505 103.176 69.2657 104.892 68.217C106.703 67.1683 108.61 66.358 110.612 65.786C112.709 65.214 114.759 64.928 116.761 64.928C119.24 64.928 121.337 65.1663 123.053 65.643C124.864 66.1197 126.39 66.7393 127.629 67.502L122.624 84.519C121.48 83.947 120.193 83.518 118.763 83.232C117.428 82.8507 115.76 82.66 113.758 82.66C111.184 82.66 108.848 83.1843 106.751 84.233C104.654 85.1863 102.842 86.5687 101.317 88.38C99.887 90.1913 98.743 92.3363 97.885 94.815C97.1223 97.1983 96.741 99.82 96.741 102.68V137H78.008V66.93Z" fill="#EA4333"/>
<path d="M198.36 120.126C195.119 125.846 190.733 130.47 185.204 133.997C179.77 137.524 173.097 139.288 165.184 139.288C159.845 139.288 154.888 138.382 150.312 136.571C145.831 134.664 141.923 132.043 138.586 128.706C135.249 125.369 132.628 121.461 130.721 116.98C128.91 112.404 128.004 107.399 128.004 101.965C128.004 96.9123 128.91 92.1457 130.721 87.665C132.532 83.089 135.059 79.1327 138.3 75.796C141.541 72.364 145.355 69.647 149.74 67.645C154.221 65.643 159.13 64.642 164.469 64.642C170.094 64.642 175.099 65.5953 179.484 67.502C183.869 69.3133 187.54 71.8873 190.495 75.224C193.45 78.4653 195.691 82.3263 197.216 86.807C198.741 91.2877 199.504 96.1497 199.504 101.393C199.504 102.06 199.504 102.632 199.504 103.109C199.409 103.681 199.361 104.205 199.361 104.682C199.266 105.159 199.218 105.683 199.218 106.255H146.451C146.832 109.115 147.595 111.594 148.739 113.691C149.978 115.693 151.456 117.409 153.172 118.839C154.983 120.174 156.938 121.175 159.035 121.842C161.132 122.414 163.277 122.7 165.47 122.7C169.76 122.7 173.287 121.747 176.052 119.84C178.912 117.838 181.152 115.359 182.773 112.404L198.36 120.126ZM181.343 92.956C181.248 91.7167 180.819 90.3343 180.056 88.809C179.389 87.2837 178.34 85.8537 176.91 84.519C175.575 83.1843 173.859 82.088 171.762 81.23C169.76 80.372 167.329 79.943 164.469 79.943C160.465 79.943 156.938 81.087 153.887 83.375C150.836 85.663 148.691 88.8567 147.452 92.956H181.343Z" fill="#FBBC05"/>
<path d="M255.194 129.564H254.05C251.857 132.233 249.188 134.521 246.042 136.428C242.991 138.335 239.035 139.288 234.173 139.288C230.55 139.288 227.118 138.668 223.877 137.429C220.731 136.285 217.966 134.664 215.583 132.567C213.2 130.47 211.341 127.943 210.006 124.988C208.671 122.033 208.004 118.791 208.004 115.264C208.004 111.641 208.719 108.4 210.149 105.54C211.579 102.585 213.581 100.058 216.155 97.961C218.729 95.8637 221.732 94.2907 225.164 93.242C228.691 92.098 232.505 91.526 236.604 91.526C241.18 91.526 244.946 91.9073 247.901 92.67C250.856 93.3373 253.287 94.0523 255.194 94.815V92.67C255.194 88.952 253.716 85.9013 250.761 83.518C247.806 81.0393 244.135 79.8 239.75 79.8C233.267 79.8 227.786 82.517 223.305 87.951L209.72 78.656C217.156 69.3133 227.309 64.642 240.179 64.642C251.047 64.642 259.341 67.216 265.061 72.364C270.781 77.4167 273.641 84.948 273.641 94.958V137H255.194V129.564ZM255.194 108.543C253.001 107.494 250.713 106.684 248.33 106.112C246.042 105.445 243.516 105.111 240.751 105.111C236.27 105.111 232.791 106.112 230.312 108.114C227.929 110.021 226.737 112.404 226.737 115.264C226.737 118.124 227.881 120.412 230.169 122.128C232.552 123.844 235.269 124.702 238.32 124.702C240.799 124.702 243.087 124.273 245.184 123.415C247.281 122.462 249.045 121.27 250.475 119.84C252 118.315 253.144 116.599 253.907 114.692C254.765 112.69 255.194 110.64 255.194 108.543Z" fill="#4285F4"/>
<path d="M288.008 137V34.612H306.741V137H288.008Z" fill="#34A85A"/>
<path d="M339.597 76.082H340.741C342.934 72.5547 345.889 69.79 349.607 67.788C353.325 65.6907 357.567 64.642 362.334 64.642C366.719 64.642 370.58 65.357 373.917 66.787C377.254 68.217 379.971 70.2667 382.068 72.936C384.261 75.51 385.881 78.656 386.93 82.374C388.074 85.9967 388.646 90.0483 388.646 94.529V137H369.913V96.817C369.913 91.7643 368.769 88.0463 366.481 85.663C364.288 83.1843 361.047 81.945 356.757 81.945C354.183 81.945 351.895 82.517 349.893 83.661C347.986 84.7097 346.318 86.1873 344.888 88.094C343.553 89.9053 342.505 92.098 341.742 94.672C341.075 97.1507 340.741 99.82 340.741 102.68V137H322.008V66.93H339.597V76.082Z" fill="#EA4333"/>
<path d="M437.184 64.642C442.618 64.642 447.575 65.5953 452.056 67.502C456.632 69.3133 460.541 71.8873 463.782 75.224C467.119 78.4653 469.693 82.374 471.504 86.95C473.411 91.526 474.364 96.531 474.364 101.965C474.364 107.399 473.411 112.404 471.504 116.98C469.693 121.556 467.119 125.512 463.782 128.849C460.541 132.09 456.632 134.664 452.056 136.571C447.575 138.382 442.618 139.288 437.184 139.288C431.75 139.288 426.745 138.382 422.169 136.571C417.688 134.664 413.78 132.09 410.443 128.849C407.202 125.512 404.628 121.556 402.721 116.98C400.91 112.404 400.004 107.399 400.004 101.965C400.004 96.531 400.91 91.526 402.721 86.95C404.628 82.374 407.202 78.4653 410.443 75.224C413.78 71.8873 417.688 69.3133 422.169 67.502C426.745 65.5953 431.75 64.642 437.184 64.642ZM437.184 121.985C439.567 121.985 441.855 121.556 444.048 120.698C446.336 119.745 448.338 118.41 450.054 116.694C451.77 114.978 453.105 112.881 454.058 110.402C455.107 107.923 455.631 105.111 455.631 101.965C455.631 98.819 455.107 96.0067 454.058 93.528C453.105 91.0493 451.77 88.952 450.054 87.236C448.338 85.52 446.336 84.233 444.048 83.375C441.855 82.4217 439.567 81.945 437.184 81.945C434.705 81.945 432.37 82.4217 430.177 83.375C427.984 84.233 426.03 85.52 424.314 87.236C422.598 88.952 421.216 91.0493 420.167 93.528C419.214 96.0067 418.737 98.819 418.737 101.965C418.737 105.111 419.214 107.923 420.167 110.402C421.216 112.881 422.598 114.978 424.314 116.694C426.03 118.41 427.984 119.745 430.177 120.698C432.37 121.556 434.705 121.985 437.184 121.985Z" fill="#4285F4"/>
<path d="M485.008 66.93H502.597V76.654H503.741C504.599 74.938 505.743 73.365 507.173 71.935C508.603 70.505 510.176 69.2657 511.892 68.217C513.703 67.1683 515.61 66.358 517.612 65.786C519.709 65.214 521.759 64.928 523.761 64.928C526.24 64.928 528.337 65.1663 530.053 65.643C531.864 66.1197 533.39 66.7393 534.629 67.502L529.624 84.519C528.48 83.947 527.193 83.518 525.763 83.232C524.428 82.8507 522.76 82.66 520.758 82.66C518.184 82.66 515.848 83.1843 513.751 84.233C511.654 85.1863 509.842 86.5687 508.317 88.38C506.887 90.1913 505.743 92.3363 504.885 94.815C504.122 97.1983 503.741 99.82 503.741 102.68V137H485.008V66.93Z" fill="#EA4333"/>
<path d="M542.008 66.93H559.597V76.082H560.741C562.934 72.65 565.889 69.8853 569.607 67.788C573.42 65.6907 577.615 64.642 582.191 64.642C587.53 64.642 592.01 65.8813 595.633 68.36C599.256 70.8387 601.83 73.8893 603.355 77.512C605.548 73.9847 608.646 70.9817 612.65 68.503C616.654 65.929 621.516 64.642 627.236 64.642C631.526 64.642 635.244 65.357 638.39 66.787C641.536 68.1217 644.11 70.0283 646.112 72.507C648.209 74.9857 649.782 77.9887 650.831 81.516C651.88 84.948 652.404 88.7137 652.404 92.813V137H633.671V96.245C633.671 86.7117 629.762 81.945 621.945 81.945C619.466 81.945 617.274 82.517 615.367 83.661C613.46 84.7097 611.84 86.1873 610.505 88.094C609.266 89.9053 608.265 92.098 607.502 94.672C606.835 97.246 606.501 100.011 606.501 102.966V137H587.768V96.245C587.768 86.7117 583.669 81.945 575.47 81.945C573.087 81.945 570.989 82.517 569.178 83.661C567.367 84.7097 565.841 86.1873 564.602 88.094C563.363 89.9053 562.409 92.098 561.742 94.672C561.075 97.246 560.741 100.011 560.741 102.966V137H542.008V66.93Z" fill="#FBBC05"/>
<path d="M710.194 129.564H709.05C706.857 132.233 704.188 134.521 701.042 136.428C697.991 138.335 694.035 139.288 689.173 139.288C685.55 139.288 682.118 138.668 678.877 137.429C675.731 136.285 672.966 134.664 670.583 132.567C668.2 130.47 666.341 127.943 665.006 124.988C663.671 122.033 663.004 118.791 663.004 115.264C663.004 111.641 663.719 108.4 665.149 105.54C666.579 102.585 668.581 100.058 671.155 97.961C673.729 95.8637 676.732 94.2907 680.164 93.242C683.691 92.098 687.505 91.526 691.604 91.526C696.18 91.526 699.946 91.9073 702.901 92.67C705.856 93.3373 708.287 94.0523 710.194 94.815V92.67C710.194 88.952 708.716 85.9013 705.761 83.518C702.806 81.0393 699.135 79.8 694.75 79.8C688.267 79.8 682.786 82.517 678.305 87.951L664.72 78.656C672.156 69.3133 682.309 64.642 695.179 64.642C706.047 64.642 714.341 67.216 720.061 72.364C725.781 77.4167 728.641 84.948 728.641 94.958V137H710.194V129.564ZM710.194 108.543C708.001 107.494 705.713 106.684 703.33 106.112C701.042 105.445 698.516 105.111 695.751 105.111C691.27 105.111 687.791 106.112 685.312 108.114C682.929 110.021 681.737 112.404 681.737 115.264C681.737 118.124 682.881 120.412 685.169 122.128C687.552 123.844 690.269 124.702 693.32 124.702C695.799 124.702 698.087 124.273 700.184 123.415C702.281 122.462 704.045 121.27 705.475 119.84C707 118.315 708.144 116.599 708.907 114.692C709.765 112.69 710.194 110.64 710.194 108.543Z" fill="#4285F4"/>
<path d="M760.597 76.082H761.741C763.934 72.5547 766.889 69.79 770.607 67.788C774.325 65.6907 778.567 64.642 783.334 64.642C787.719 64.642 791.58 65.357 794.917 66.787C798.254 68.217 800.971 70.2667 803.068 72.936C805.261 75.51 806.881 78.656 807.93 82.374C809.074 85.9967 809.646 90.0483 809.646 94.529V137H790.913V96.817C790.913 91.7643 789.769 88.0463 787.481 85.663C785.288 83.1843 782.047 81.945 777.757 81.945C775.183 81.945 772.895 82.517 770.893 83.661C768.986 84.7097 767.318 86.1873 765.888 88.094C764.553 89.9053 763.505 92.098 762.742 94.672C762.075 97.1507 761.741 99.82 761.741 102.68V137H743.008V66.93H760.597V76.082Z" fill="#34A85A"/>
<path d="M835.447 56.777C833.826 56.777 832.253 56.491 830.728 55.919C829.298 55.2517 828.011 54.3937 826.867 53.345C825.818 52.201 824.96 50.914 824.293 49.484C823.721 48.054 823.435 46.481 823.435 44.765C823.435 43.049 823.721 41.476 824.293 40.046C824.96 38.616 825.818 37.3767 826.867 36.328C828.011 35.184 829.298 34.326 830.728 33.754C832.253 33.0867 833.826 32.753 835.447 32.753C838.784 32.753 841.644 33.9447 844.027 36.328C846.41 38.616 847.602 41.4283 847.602 44.765C847.602 48.1017 846.41 50.9617 844.027 53.345C841.644 55.633 838.784 56.777 835.447 56.777ZM826.152 137V66.93H844.885V137H826.152Z" fill="#EA4333"/>
<path d="M862.008 34.612H880.741V90.382H881.599L905.051 66.93H928.217V68.074L902.191 93.385L930.362 135.856V137H908.197L889.035 106.255L880.741 114.406V137H862.008V34.612Z" fill="#4285F4"/>
</g>
<defs>
<clipPath id="clip0_65_29">
<rect width="931" height="188" fill="white"/>
</clipPath>
</defs>
</svg>
